<svg xmlns="http://www.w3.org/2000/svg" viewBox="0 0 141.732 141.732">
  <g fill="#006FCF">
    <path d="M89.598 33.566h-33.82l-7.68 17.921-7.923-17.921H6.325v53.509h32.598l7.802-18.004 7.921 18.004h33.823l-11.155-26.756 11.155-26.753h.129zM19.881 74.62V46.021h9.614l7.803 17.921V46.021h10.129l6.837 15.466 6.328-15.466h10.251v28.599h-6.201V51.815L56.302 74.62h-5.075L42.76 51.815V74.62H19.881zm74.885 0L88.67 60.858l-6.096 13.762H63.25l11.645-26.753-11.645-26.753h19.324l6.096 13.883 6.096-13.883h19.203L102.324 47.867 114.09 74.62H94.766z"/>
    <path d="M122.014 46.021v6.449h13.518v6.328h-13.518v6.571h15.102v9.251h-21.424V46.021h21.424v-.121h-15.102v.121z"/>
  </g>
</svg>