<svg viewBox="0 0 780 500" xmlns="http://www.w3.org/2000/svg">
  <rect width="780" height="500" rx="40" fill="#000"/>
  <g fill="#FFF">
    <path d="M166.5 186.1c-1.2 1.6-3.2 2.8-5 2.7-0.2-1.9 0.6-3.9 1.7-5.2 1.2-1.5 3.3-2.6 5-2.7 0.2 2-0.5 3.9-1.7 5.2zm1.7 2.8c-2.8-0.2-5.2 1.6-6.5 1.6s-3.4-1.5-5.6-1.5c-2.9 0-5.5 1.7-7 4.2-3 5.1-0.8 12.7 2.1 16.9 1.5 2 3.2 4.3 5.5 4.2 2.1-0.1 3-1.4 5.6-1.4s3.3 1.4 5.6 1.3c2.3 0 3.8-2 5.3-4.1 1.6-2.4 2.3-4.6 2.4-4.8 0-0.1-4.5-1.7-4.6-6.9-0.1-4.3 3.5-6.3 3.7-6.5-2-2.9-5.1-3.2-6.2-3.3-0.1 0.1-0.2 0.1-0.3 0.3z"/>
  </g>
  <g fill="#FFF" transform="translate(200, 175)">
    <path d="M9.7 5.1c0-2.3 1.9-4.2 4.8-4.2h7.3v38.9h-8.6v-13c-1.4 1.6-3.4 2.5-5.8 2.5-4.3 0-7.7-3.4-7.7-8.3v-7.8c0-4.9 3.4-8.3 7.7-8.3 2.4 0 4.4 0.9 5.8 2.5v-2.3h-3.5zm3.5 7.8v7.8c0 1.9 1.3 3.2 3.2 3.2s3.2-1.3 3.2-3.2v-7.8c0-1.9-1.3-3.2-3.2-3.2s-3.2 1.3-3.2 3.2z"/>
    <path d="M38.5 5.1c0-2.3 1.9-4.2 4.8-4.2h7.3v38.9h-8.6v-13c-1.4 1.6-3.4 2.5-5.8 2.5-4.3 0-7.7-3.4-7.7-8.3v-7.8c0-4.9 3.4-8.3 7.7-8.3 2.4 0 4.4 0.9 5.8 2.5v-2.3h-3.5zm3.5 7.8v7.8c0 1.9 1.3 3.2 3.2 3.2s3.2-1.3 3.2-3.2v-7.8c0-1.9-1.3-3.2-3.2-3.2s-3.2 1.3-3.2 3.2z"/>
    <path d="M63.4 0h8.6v39.8h-8.6z"/>
    <path d="M86.7 10.9c4.8 0 8.1 3.2 8.1 8v1.2h-12.7v0.3c0 1.9 1.4 3.2 3.5 3.2 1.5 0 2.6-0.6 3.1-1.7h5.9c-0.8 4-4.2 6.6-9.1 6.6-5.5 0-9.2-3.7-9.2-8.8v-0.3c0-5.1 3.7-8.8 9.2-8.8l0.2 0.3zm-4.6 6.4h7.6v-0.2c0-1.8-1.3-3.1-3.2-3.1-1.9 0-3.3 1.3-3.8 3.1l-0.6 0.2z"/>
    <path d="M110.8 0v11.8h6.3c5.7 0 9.6 3.9 9.6 9.5s-3.9 9.5-9.6 9.5h-6.3v9h-8.6v-39.8h14.9zm0 6.8v14.2h5.2c2.5 0 4.2-1.7 4.2-4.2v-5.8c0-2.5-1.7-4.2-4.2-4.2h-5.2z"/>
    <path d="M141.6 10.9c2.4 0 4.4 0.9 5.8 2.5v-2.3h8.6v17.5c0 5.7-4.4 9.6-11 9.6-5.7 0-10-2.9-10.5-7.3h8.2c0.4 1.2 1.6 2 3.2 2 2 0 3.4-1 3.4-2.6v-2.4c-1.4 1.6-3.4 2.5-5.8 2.5-4.3 0-7.7-3.4-7.7-8.3v-2.7c0-4.9 3.4-8.3 7.7-8.3l0.1-0.2zm2.3 5.1c-1.9 0-3.2 1.3-3.2 3.2v2.7c0 1.9 1.3 3.2 3.2 3.2s3.2-1.3 3.2-3.2v-2.7c0-1.9-1.3-3.2-3.2-3.2z"/>
    <path d="M170.9 10.9c2.4 0 4.3 0.9 5.7 2.4 1.2 1.3 1.9 3 1.9 5.2v11.3h-8.6v-10.4c0-1.9-1-3-2.7-3-1.7 0-2.8 1.1-2.8 3v10.4h-8.6v-18.1h8.6v2.1c1.3-1.5 3.2-2.4 5.4-2.4l1.1-0.5z"/>
    <path d="M191.7 10.9c2.5 0 4.5 0.9 5.9 2.5v-2.3h8.6v18.1h-8.6v-2.3c-1.4 1.6-3.4 2.5-5.9 2.5-4.3 0-7.7-3.4-7.7-8.3v-2.7c0-4.9 3.4-8.3 7.7-8.3v-0.2zm2.4 5.1c-1.9 0-3.2 1.3-3.2 3.2v2.7c0 1.9 1.3 3.2 3.2 3.2s3.2-1.3 3.2-3.2v-2.7c0-1.9-1.3-3.2-3.2-3.2z"/>
    <path d="M221.1 28.5h-8.2l-7.9-18.1h9.4l3.5 9.2 3.5-9.2h9.4z"/>
  </g>
</svg>