<svg xmlns="http://www.w3.org/2000/svg" viewBox="0 0 165.521 105.965" width="165.521" height="105.965">
  <defs>
    <style>.cls-1{fill:#000;}</style>
  </defs>
  <g id="Layer_2" data-name="Layer 2">
    <g id="Layer_1-2" data-name="Layer 1">
      <rect class="cls-1" width="165.521" height="105.965" rx="5.288"/>
      <path fill="#fff" d="M35.109,26.923a6.3,6.3,0,0,1,1.675-4.543,6.856,6.856,0,0,1,4.482-2.294,6.44,6.44,0,0,1-1.639,4.759A5.762,5.762,0,0,1,35.109,26.923ZM39.515,27.5c-2.495-.15-4.622,1.422-5.8,1.422s-3.033-1.348-4.983-1.31a7.413,7.413,0,0,0-6.229,3.807c-2.663,4.61-.681,11.451,1.912,15.2,1.273,1.837,2.791,3.9,4.786,3.827,1.912-.075,2.636-1.238,4.947-1.238s2.958,1.238,4.983,1.2c2.058-.037,3.4-1.876,4.673-3.725a16.3,16.3,0,0,0,2.133-4.351,6.427,6.427,0,0,1-3.9-5.913,6.56,6.56,0,0,1,3.3-5.652A6.756,6.756,0,0,0,39.515,27.5Z"/>
      <path fill="#fff" d="M62.433,47.152a5.481,5.481,0,0,1-5.841,5.913c-3.713,0-6.043-2.5-6.043-6.5V39.35c0-4,2.367-6.5,6.043-6.5a5.459,5.459,0,0,1,5.841,5.913Zm-3.158-7.214v-.6a2.647,2.647,0,0,0-2.683-2.885,2.7,2.7,0,0,0-2.759,2.885v7.214a2.7,2.7,0,0,0,2.759,2.885,2.647,2.647,0,0,0,2.683-2.885Z"/>
      <path fill="#fff" d="M72.656,54.066a4.974,4.974,0,0,1-5.127-5.389v-2.36a5.127,5.127,0,0,1,10.254,0v2.36A4.974,4.974,0,0,1,72.656,54.066Zm0-3.121a1.943,1.943,0,0,0,1.968-2.268v-2.36a1.968,1.968,0,1,0-3.936,0v2.36A1.943,1.943,0,0,0,72.656,50.945Z"/>
      <path fill="#fff" d="M89.087,46.965a2.762,2.762,0,0,0-2.5-3.121h-.038a2.7,2.7,0,0,0-2.721,2.885v7.214H80.671V33.288h3.158V40.5h0a4.054,4.054,0,0,1,4.2-3.645h.038a5.3,5.3,0,0,1,4.182,1.762Z"/>
    </g>
  </g>
</svg>
