<svg xmlns="http://www.w3.org/2000/svg" viewBox="0 0 780 501">
  <path fill="#F68121" d="M54,0h672c29.8,0,54,24.2,54,54v393c0,29.8-24.2,54-54,54H54c-29.8,0-54-24.2-54-54V54C0,24.2,24.2,0,54,0z"/>
  <path fill="#221F20" d="M184.1,269.3c-3.2,0-5.8-0.9-7.8-2.6c-2-1.7-3-4.2-3-7.3v-45.2h11.3v44.6c0,0.7,0.2,1.3,0.5,1.7 c0.4,0.4,0.9,0.6,1.6,0.6h4.7v8.2H184.1z"/>
  <path fill="#221F20" d="M234.7,269.3c-6.5,0-11.8-2-15.8-5.9c-4-4-6-9.3-6-16v-13.2c0-6.7,2-12,6-16c4-4,9.3-5.9,15.8-5.9 c6.5,0,11.8,2,15.8,5.9c4,4,6,9.3,6,16v13.2c0,6.7-2,12-6,16C246.5,267.3,241.2,269.3,234.7,269.3z M234.7,261.1 c2.3,0,4.1-0.8,5.4-2.5c1.3-1.6,2-3.9,2-6.9v-13.2c0-3-0.7-5.3-2-6.9c-1.3-1.6-3.1-2.5-5.4-2.5c-2.3,0-4.1,0.8-5.4,2.5 c-1.3,1.6-2,3.9-2,6.9v13.2c0,3,0.7,5.3,2,6.9C230.6,260.3,232.4,261.1,234.7,261.1z"/>
  <path fill="#221F20" d="M288.9,269.3c-6.4,0-11.5-1.9-15.3-5.8c-3.8-3.9-5.7-9.1-5.7-15.7v-13.6c0-6.6,1.9-11.9,5.7-15.7 c3.8-3.9,8.9-5.8,15.3-5.8c5.6,0,10.2,1.5,13.6,4.4c3.4,2.9,5.4,7,5.9,12.1h-11c-0.3-2-1.1-3.6-2.4-4.6c-1.3-1.1-3-1.6-5.1-1.6 c-2.6,0-4.6,0.8-5.9,2.5c-1.3,1.7-2,4-2,7v13.6c0,3,0.7,5.3,2,7c1.3,1.7,3.3,2.5,5.9,2.5c2.1,0,3.8-0.5,5.1-1.6 c1.3-1.1,2.1-2.6,2.4-4.6h11c-0.5,5.1-2.5,9.2-5.9,12.1C299.1,267.8,294.5,269.3,288.9,269.3z"/>
  <path fill="#221F20" d="M342,269.3c-6.4,0-11.5-1.9-15.3-5.8c-3.8-3.9-5.7-9.1-5.7-15.7v-13.6c0-6.6,1.9-11.9,5.7-15.7 c3.8-3.9,8.9-5.8,15.3-5.8c5.6,0,10.2,1.5,13.6,4.4c3.4,2.9,5.4,7,5.9,12.1h-11c-0.3-2-1.1-3.6-2.4-4.6c-1.3-1.1-3-1.6-5.1-1.6 c-2.6,0-4.6,0.8-5.9,2.5c-1.3,1.7-2,4-2,7v13.6c0,3,0.7,5.3,2,7c1.3,1.7,3.3,2.5,5.9,2.5c2.1,0,3.8-0.5,5.1-1.6 c1.3-1.1,2.1-2.6,2.4-4.6h11c-0.5,5.1-2.5,9.2-5.9,12.1C352.2,267.8,347.6,269.3,342,269.3z"/>
  <path fill="#221F20" d="M396.5,269.3c-6.4,0-11.5-1.9-15.3-5.8c-3.8-3.9-5.7-9.1-5.7-15.7v-13.6c0-6.6,1.9-11.9,5.7-15.7 c3.8-3.9,8.9-5.8,15.3-5.8c5.6,0,10.2,1.5,13.6,4.4c3.4,2.9,5.4,7,5.9,12.1h-11c-0.3-2-1.1-3.6-2.4-4.6c-1.3-1.1-3-1.6-5.1-1.6 c-2.6,0-4.6,0.8-5.9,2.5c-1.3,1.7-2,4-2,7v13.6c0,3,0.7,5.3,2,7c1.3,1.7,3.3,2.5,5.9,2.5c2.1,0,3.8-0.5,5.1-1.6 c1.3-1.1,2.1-2.6,2.4-4.6h11c-0.5,5.1-2.5,9.2-5.9,12.1C406.7,267.8,402.1,269.3,396.5,269.3z"/>
  <path fill="#221F20" d="M449.9,269.3c-6.5,0-11.8-2-15.8-5.9c-4-4-6-9.3-6-16v-13.2c0-6.7,2-12,6-16c4-4,9.3-5.9,15.8-5.9 c6.5,0,11.8,2,15.8,5.9c4,4,6,9.3,6,16v13.2c0,6.7-2,12-6,16C461.7,267.3,456.4,269.3,449.9,269.3z M449.9,261.1 c2.3,0,4.1-0.8,5.4-2.5c1.3-1.6,2-3.9,2-6.9v-13.2c0-3-0.7-5.3-2-6.9c-1.3-1.6-3.1-2.5-5.4-2.5c-2.3,0-4.1,0.8-5.4,2.5 c-1.3,1.6-2,3.9-2,6.9v13.2c0,3,0.7,5.3,2,6.9C445.8,260.3,447.6,261.1,449.9,261.1z"/>
  <path fill="#221F20" d="M500.4,268.8l-17.3-54.5h11.9l11.5,38.7l11.5-38.7h11.9l-17.3,54.5H500.4z"/>
  <path fill="#221F20" d="M563,269.3c-6.5,0-11.8-2-15.8-5.9c-4-4-6-9.3-6-16v-13.2c0-6.7,2-12,6-16c4-4,9.3-5.9,15.8-5.9 c6.5,0,11.7,1.9,15.6,5.8c3.9,3.8,5.9,9.1,5.9,15.7v5.3h-31.9v8c0,3,0.7,5.3,2,6.9c1.3,1.6,3.1,2.5,5.4,2.5c1.9,0,3.4-0.5,4.6-1.4 c1.2-0.9,1.9-2.3,2.2-4h11.1c-0.5,4.8-2.4,8.7-5.7,11.7C574.8,267.8,569.6,269.3,563,269.3z M552.3,242.8h20.6v-1.3 c0-2.8-0.7-5-2-6.6c-1.3-1.6-3.2-2.4-5.5-2.4c-2.3,0-4.2,0.8-5.5,2.4c-1.3,1.6-2,3.8-2,6.6V242.8z"/>
  <path fill="#221F20" d="M613.1,269.3c-2.5,0-4.8-0.4-6.8-1.3c-2-0.9-3.7-2.2-5-3.8c-1.3-1.7-2.2-3.6-2.7-5.9 c-0.5-2.3-0.7-4.8-0.7-7.6v-36.4h11.3v36.2c0,2.3,0.4,4.1,1.2,5.5c0.8,1.3,2.1,2,3.9,2h4.4v11.3H613.1z"/>
</svg>