<svg viewBox="0 0 780 500" xmlns="http://www.w3.org/2000/svg">
  <rect width="780" height="500" rx="40" fill="#FFF"/>
  <path d="M323.3 247.5v39h-12.3v-96.9h32.7c7.8 0 15.3 3.1 20.8 8.5 5.6 5.6 8.7 13 8.7 20.8 0 7.8-3.1 15.3-8.7 20.8-5.5 5.4-13 8.5-20.8 8.5h-20.4v-.7zm0-45.8v33.5h20.6c4.5 0 8.8-1.8 12-4.9 3.2-3.2 5-7.5 5-12s-1.8-8.8-5-12c-3.2-3.1-7.5-4.9-12-4.9h-20.6v.3z" fill="#5F6368"/>
  <path d="M403.3 233.9c10.2 0 18.3 2.8 24.3 8.4s9 13.4 9 23.3v38.4h-11.6v-8.7h-.5c-5.4 7.2-12.6 10.8-21.5 10.8-7.7 0-14.2-2.3-19.4-6.9-5.2-4.6-7.8-10.3-7.8-17.2 0-7.2 2.8-12.9 8.3-17.1 5.5-4.2 12.6-6.3 21.3-6.3 7.6 0 13.9 1.4 18.8 4.2v-3c0-4.8-2-9.3-5.5-12.6-3.5-3.3-7.9-5.1-12.7-5.1-7.2 0-13.1 3.1-17.7 9.3l-10.7-6.8c6.2-8.3 15.2-12.5 27-12.5l-2.3 0.8zm-16.1 51.4c0 3.5 1.4 6.8 3.9 9.2 2.5 2.4 5.8 3.7 9.1 3.7 5.2 0 10.2-2.2 13.9-6.1 3.7-3.9 5.8-8.9 5.8-14.1-4-3-9.7-4.5-17.1-4.5-5.2 0-9.8 1.3-13.6 3.9-3.8 2.6-5.9 6-5.9 9.8l3.9-1.9z" fill="#5F6368"/>
  <path d="M466.7 192.9h12.3v110.4h-12.3z" fill="#5F6368"/>
  <path d="M545.2 236.2h-29.4l-33.2 67.1h13.2l29.5-59.6 29.5 59.6h13.2l-33.2-67.1h10.4z" fill="#5F6368"/>
  <path d="M210 247.5c0-3.9-0.4-7.8-1.1-11.6H170v21.9h22.4c-1 5.3-3.8 10.1-8.2 13.4v14.1h13.3c7.8-7.2 12.3-17.8 12.3-30.1l2.2-7.7z" fill="#4285F4"/>
  <path d="M170 287.6c11.1 0 20.4-3.7 27.2-10l-13.3-10.3c-3.7 2.5-8.4 3.9-13.9 3.9-10.7 0-19.8-7.2-23-16.9h-13.8v10.5c7 13.7 21.2 22.9 36.7 22.9l.1-.1z" fill="#34A853"/>
  <path d="M147 254.3c-1.6-4.9-1.6-10.2 0-15.1v-10.5h-13.8c-6.1 12.2-6.1 26.5 0 38.7l13.8-13.1z" fill="#FBBC04"/>
  <path d="M170 213c5.9 0 11.2 2 15.4 6l11.5-11.5c-7-6.5-16.2-10.1-26.9-10.1-15.5 0-29.6 8.9-36.7 22.7l13.8 10.7c3.2-9.7 12.3-16.9 23-16.9l-.1-.9z" fill="#EA4335"/>
</svg>