<svg xmlns="http://www.w3.org/2000/svg" viewBox="0 0 660 300" width="660" height="300">
  <path fill="#5f6368" d="M232.227 176.609h-23.212v-62.012h23.212c12.174 0 21.848 3.69 29.021 11.065 7.173 7.377 10.762 16.959 10.762 28.752 0 11.83-3.589 21.449-10.762 28.841-7.173 7.395-16.847 11.09-29.021 11.09v.264zm-1.689-51.563h-8.35v41.11h8.534c7.813 0 13.779-2.399 17.897-7.195 4.117-4.798 6.177-11.287 6.177-19.465 0-8.106-2.06-14.56-6.177-19.362-4.118-4.8-10.084-7.2-17.897-7.2l-.184 2.112z"/>
  <path fill="#5f6368" d="M302.791 179.05c-7.997 0-14.696-2.658-20.096-7.975-5.4-5.316-8.101-12.058-8.101-20.223 0-8.456 2.701-15.342 8.101-20.656 5.4-5.316 12.099-7.974 20.096-7.974 7.997 0 14.696 2.658 20.096 7.974 5.4 5.314 8.101 12.2 8.101 20.656 0 8.165-2.701 14.907-8.101 20.223-5.4 5.317-12.099 7.975-20.096 7.975zm0-10.65c4.301 0 7.997-1.549 11.091-4.648 3.093-3.099 4.64-7.195 4.64-12.289 0-5.241-1.547-9.41-4.64-12.51-3.094-3.099-6.79-4.649-11.091-4.649-4.302 0-7.998 1.55-11.091 4.649-3.094 3.1-4.641 7.269-4.641 12.51 0 5.094 1.547 9.19 4.641 12.289 3.093 3.099 6.789 4.648 11.091 4.648z"/>
  <path fill="#5f6368" d="M368.859 179.05c-7.997 0-14.696-2.658-20.096-7.975-5.4-5.316-8.1-12.058-8.1-20.223 0-8.456 2.7-15.342 8.1-20.656 5.4-5.316 12.099-7.974 20.096-7.974 7.997 0 14.696 2.658 20.096 7.974 5.4 5.314 8.1 12.2 8.1 20.656 0 8.165-2.7 14.907-8.1 20.223-5.4 5.317-12.099 7.975-20.096 7.975zm0-10.65c4.302 0 7.998-1.549 11.091-4.648 3.094-3.099 4.641-7.195 4.641-12.289 0-5.241-1.547-9.41-4.641-12.51-3.093-3.099-6.789-4.649-11.091-4.649-4.301 0-7.997 1.55-11.091 4.649-3.093 3.1-4.641 7.269-4.641 12.51 0 5.094 1.548 9.19 4.641 12.289 3.094 3.099 6.79 4.648 11.091 4.648z"/>
  <path fill="#5f6368" d="M434.927 179.05c-7.997 0-14.696-2.658-20.096-7.975-5.4-5.316-8.1-12.058-8.1-20.223 0-8.456 2.7-15.342 8.1-20.656 5.4-5.316 12.099-7.974 20.096-7.974s14.696 2.658 20.096 7.974c5.4 5.314 8.101 12.2 8.101 20.656 0 8.165-2.701 14.907-8.101 20.223-5.4 5.317-12.099 7.975-20.096 7.975zm0-10.65c4.302 0 7.997-1.549 11.091-4.648 3.094-3.099 4.641-7.195 4.641-12.289 0-5.241-1.547-9.41-4.641-12.51-3.094-3.099-6.789-4.649-11.091-4.649-4.301 0-7.997 1.55-11.091 4.649-3.093 3.1-4.64 7.269-4.64 12.51 0 5.094 1.547 9.19 4.64 12.289 3.094 3.099 6.79 4.648 11.091 4.648z"/>
  <path fill="#5f6368" d="M473.175 176.609V97.641h13.174v78.968h-13.174z"/>
  <path fill="#5f6368" d="M542.712 154.762h-38.607c.553 3.391 2.03 6.123 4.433 8.201 2.403 2.077 5.285 3.116 8.65 3.116 5.162 0 9.041-2.077 11.641-6.232h13.174c-2.046 5.388-5.47 9.774-10.272 13.156-4.803 3.382-10.394 5.074-16.774 5.074-8.181 0-14.929-2.657-20.242-7.974-5.316-5.316-7.973-12.2-7.973-20.656 0-8.456 2.657-15.342 7.973-20.656 5.313-5.316 12.061-7.974 20.242-7.974 7.997 0 14.696 2.658 20.096 7.974 5.4 5.314 8.101 12.2 8.101 20.656 0 1.476-.147 3.099-.442 4.868v.447zm-38.239-8.93h25.434c-.737-3.244-2.306-5.828-4.709-7.751-2.403-1.924-5.254-2.886-8.55-2.886-3.482 0-6.424 1.033-8.834 3.099-2.403 2.065-3.804 4.58-4.194 7.538h.853z"/>
  <path fill="#4285f4" d="M153.561 137.883v39.265h-13.066V96.979h34.623v10.545h-21.557v20.049h19.499v10.31h-19.499z"/>
  <path fill="#34a853" d="M197.459 150.852c3.094-3.099 6.79-4.649 11.091-4.649 4.302 0 7.998 1.55 11.091 4.649 3.094 3.1 4.641 7.269 4.641 12.51 0 5.094-1.547 9.19-4.641 12.289-3.093 3.099-6.789 4.648-11.091 4.648-4.301 0-7.997-1.549-11.091-4.648-3.094-3.099-4.641-7.195-4.641-12.289 0-5.241 1.547-9.41 4.641-12.51z"/>
  <path fill="#fabbc0" d="M208.55 122.222c-7.997 0-14.696 2.658-20.096 7.974-5.4 5.314-8.101 12.2-8.101 20.656 0 8.165 2.701 14.907 8.101 20.223 5.4 5.317 12.099 7.975 20.096 7.975 7.997 0 14.696-2.658 20.096-7.975 5.4-5.316 8.101-12.058 8.101-20.223 0-8.456-2.701-15.342-8.101-20.656-5.4-5.316-12.099-7.974-20.096-7.974z"/>
  <circle fill="#ea4335" cx="127" cy="150" r="28"/>
  <circle fill="#fbbc04" cx="208.55" cy="150.852" r="28"/>
  <circle fill="#4285f4" cx="127" cy="150" r="12"/>
  <circle fill="#34a853" cx="208.55" cy="150.852" r="12"/>
</svg>
