<svg xmlns="http://www.w3.org/2000/svg" viewBox="0 0 750 471" width="750" height="471">
  <rect fill="#0E4595" width="750" height="471" rx="40"/>
  <path fill="#fff" d="M278.2 334.2h-46.7l29.2-180.3h46.7l-29.2 180.3zm231.7-177.1c-9.2-3.5-23.7-7.3-41.8-7.3-46.1 0-78.5 24.5-78.8 59.6-.3 26 23.2 40.4 40.9 49 18.2 8.8 24.3 14.4 24.2 22.2-.2 11.9-14.3 17.4-27.5 17.4-18.4 0-28.2-2.7-43.2-9.3l-5.9-2.8-6.5 40c10.9 5 31.1 9.4 52.1 9.6 49 0 80.9-24.2 81.2-61.6.2-20.6-12.3-36.3-39.3-49.2-16.3-8.4-26.3-13.9-26.2-22.4 0-7.5 8.4-15.5 26.7-15.5 15.3-.2 26.3 3.3 34.9 7l4.2 2 6.4-39.2zm105.2-3.3h-36.1c-11.2 0-19.6 3.2-24.5 15l-69.5 165.3h49l9.8-27h59.8c1.4 6.3 5.7 27 5.7 27h43.2l-37.7-180.3h.3zm-57.9 116.6c3.9-10.3 18.7-50.7 18.7-50.7-.3.5 3.9-10.5 6.3-17.4l3.2 15.8s9.1 43.9 11 53.3h-39.2zM232.5 153.9l-48.5 123.5-5.2-26.1c-8.9-30.2-36.8-63.1-68-79.5l41.8 157h49.4l73.4-175h-42.9z"/>
  <path fill="#F7A600" d="M131.9 153.9H51.2L50.6 157c58.5 14.9 97.2 50.9 113.2 94.2l-16.3-82c-2.8-11.3-10.9-14.9-21.6-15.3z"/>
</svg>
